<svg width="63" height="77" viewBox="0 0 63 77" fill="none" xmlns="http://www.w3.org/2000/svg">
<path d="M5.61877 76H62.3636V53.2299H43.5587C43.5587 53.2299 51.2428 47.0082 55.1056 41.4999C58.7346 36.3249 60.7141 32.1849 60.7141 25.2849C60.7141 19.4028 59.2053 15.7937 55.7654 11.1398C50.9025 4.56087 45.5509 2.40128 37.6202 1.47979C28.7126 0.444786 21.4522 0.772503 13.5367 5.6198C7.0883 9.56862 1 19.7648 1 19.7648L21.1246 30.4599C21.1246 30.4599 24.3271 24.2641 27.7229 23.5599C30.3622 23.0125 32.6716 22.8699 33.9912 25.2849C35.1828 27.4656 34.3987 29.7419 32.6716 31.4949C21.4545 42.8799 5.61877 58.4049 5.61877 58.4049V76Z" fill="#47DEA8" stroke="#47DEA8"/>
</svg>
