<svg width="65" height="77" viewBox="0 0 65 77" fill="none" xmlns="http://www.w3.org/2000/svg">
<path d="M60.0749 18.0807V1.13937L32.626 1H5.17702V22.8753H26.3605L19.1999 30.0672V47.4476H32.0293C32.0293 47.4476 34.3093 47.4495 35.3112 48.0469C36.3131 48.6444 36.2441 48.7043 36.5046 49.8449C36.7272 50.8194 36.1648 51.4281 35.3112 51.9425C32.3276 53.7405 31.7881 53.4408 29.0457 53.4408C25.7637 53.4408 23.4752 53.3106 20.0949 52.2422C15.9691 50.9382 10.2491 47.1479 10.2491 47.1479L1 68.4239C1 68.4239 8.38183 72.2832 13.531 73.8178C18.839 75.3997 22.0188 75.7848 27.5539 75.9155C34.1278 76.0706 38.0375 76.247 44.2619 74.1175C49.5434 72.3106 52.7883 71.1272 56.793 67.2253C60.4364 63.6753 62.2219 61.1071 63.3569 56.1378C64.1384 52.7159 64.1698 50.6204 63.6552 47.1479C63.0206 42.8652 62.6056 40.1652 60.0749 36.6598C57.1724 32.6391 49.6324 29.4679 49.6324 29.4679L60.0749 18.0807Z" fill="#47DEA8" stroke="#47DEA8"/>
</svg>
