<svg width="66" height="77" viewBox="0 0 66 77" fill="none" xmlns="http://www.w3.org/2000/svg">
<path d="M10.064 1H60.6024V22.5884H33.4105V25.3211C33.4105 25.3211 40.5438 25.3722 44.9464 26.4142C48.6107 27.2814 50.7903 27.7495 54.0104 29.6934C56.8055 31.3807 58.299 32.6081 60.3277 35.1588C62.8288 38.3035 63.8814 40.5282 64.7223 44.45C65.7316 49.1571 65.3414 52.1533 63.8984 56.7472C62.6956 60.5761 61.5754 62.7168 58.9544 65.7651C56.4715 68.6528 54.6068 69.939 51.2637 71.7771C47.3151 73.9481 44.7133 74.513 40.2771 75.3296C35.6315 76.1848 32.9135 76.0378 28.1919 75.8762C22.4609 75.68 19.1532 75.5135 13.6346 73.9633C8.45674 72.5087 1 68.4978 1 68.4978L10.6133 47.7293C10.6133 47.7293 14.6932 49.9736 17.4799 51.0085L17.545 51.0327C21.528 52.512 23.9224 53.4012 28.1919 53.468C30.4543 53.5033 31.4878 53.7412 33.9598 52.9214C35.2866 52.4814 36.2194 52.1454 36.9812 51.0085C37.5305 50.1887 37.3419 49.2808 36.9812 48.2758C36.522 46.9966 35.6918 46.4951 34.5092 45.8164C32.9967 44.9483 30.1145 44.9966 30.1145 44.9966H6.49331L10.064 1Z" fill="#47DEA8" stroke="#47DEA8"/>
</svg>
