<svg xmlns="http://www.w3.org/2000/svg" xmlns:xlink="http://www.w3.org/1999/xlink" width="40" zoomAndPan="magnify" viewBox="0 0 30 30.000001" height="40" preserveAspectRatio="xMidYMid meet" version="1.0"><defs><clipPath id="4c817063d1"><path d="M 2.570312 6 L 27.246094 6 L 27.246094 29 L 2.570312 29 Z M 2.570312 6 " clip-rule="nonzero"/></clipPath></defs><g clip-path="url(#4c817063d1)"><path fill="#2b5957" d="M 4.992188 25.398438 C 5.28125 27.429688 7.019531 28.9375 9.070312 28.9375 L 20.789062 28.9375 C 22.839844 28.9375 24.578125 27.429688 24.867188 25.398438 L 27.277344 8.53125 C 27.332031 8.136719 27.214844 7.738281 26.953125 7.4375 C 26.695312 7.136719 26.316406 6.960938 25.917969 6.960938 L 3.941406 6.960938 C 3.542969 6.960938 3.164062 7.136719 2.90625 7.4375 C 2.644531 7.738281 2.527344 8.136719 2.582031 8.53125 Z M 9.070312 26.191406 C 8.386719 26.191406 7.808594 25.6875 7.710938 25.011719 L 5.527344 9.710938 L 24.332031 9.710938 L 22.148438 25.011719 C 22.050781 25.6875 21.472656 26.191406 20.789062 26.191406 Z M 9.070312 26.191406 " fill-opacity="1" fill-rule="evenodd"/></g><path fill="#2b5957" d="M 8.0625 6.960938 C 8.0625 3.167969 11.136719 0.09375 14.929688 0.09375 C 18.722656 0.09375 21.796875 3.167969 21.796875 6.960938 L 21.796875 8.335938 C 21.796875 9.09375 21.183594 9.710938 20.421875 9.710938 L 9.4375 9.710938 C 8.675781 9.710938 8.0625 9.09375 8.0625 8.335938 Z M 14.929688 2.84375 C 12.652344 2.84375 10.808594 4.6875 10.808594 6.960938 L 19.050781 6.960938 C 19.050781 4.6875 17.207031 2.84375 14.929688 2.84375 Z M 14.929688 2.84375 " fill-opacity="1" fill-rule="evenodd"/><path fill="#2b5957" d="M 8.75 13.828125 C 8.75 17.242188 11.515625 20.011719 14.929688 20.011719 C 18.34375 20.011719 21.109375 17.242188 21.109375 13.828125 L 21.109375 13.144531 L 18.363281 13.144531 L 18.363281 13.828125 C 18.363281 15.726562 16.824219 17.261719 14.929688 17.261719 C 13.035156 17.261719 11.496094 15.726562 11.496094 13.828125 L 11.496094 13.144531 L 8.75 13.144531 Z M 8.75 13.828125 " fill-opacity="1" fill-rule="evenodd"/></svg>