<svg xmlns="http://www.w3.org/2000/svg" xmlns:xlink="http://www.w3.org/1999/xlink" width="40" zoomAndPan="magnify" viewBox="0 0 30 30.000001" height="40" preserveAspectRatio="xMidYMid meet" version="1.0"><defs><clipPath id="e8b374b52a"><path d="M 0.484375 0 L 29.515625 0 L 29.515625 29.03125 L 0.484375 29.03125 Z M 0.484375 0 " clip-rule="nonzero"/></clipPath></defs><g clip-path="url(#e8b374b52a)"><path fill="#2b5957" d="M 15.007812 0 C 19.003906 0 22.644531 1.632812 25.265625 4.25 C 27.882812 6.886719 29.515625 10.511719 29.515625 14.523438 C 29.515625 18.519531 27.882812 22.160156 25.265625 24.78125 C 22.644531 27.398438 19.003906 29.03125 15.007812 29.03125 C 10.996094 29.03125 7.371094 27.398438 4.734375 24.78125 C 2.117188 22.160156 0.484375 18.519531 0.484375 14.523438 C 0.484375 10.511719 2.117188 6.886719 4.734375 4.25 C 7.371094 1.632812 10.996094 0 15.007812 0 Z M 24.3125 5.222656 C 21.929688 2.839844 18.632812 1.359375 15.007812 1.359375 C 11.367188 1.359375 8.085938 2.839844 5.707031 5.222656 C 3.324219 7.601562 1.84375 10.886719 1.84375 14.523438 C 1.84375 18.148438 3.324219 21.445312 5.707031 23.828125 C 8.085938 26.191406 11.367188 27.671875 15.007812 27.671875 C 18.632812 27.671875 21.929688 26.191406 24.3125 23.828125 C 26.675781 21.445312 28.15625 18.148438 28.15625 14.523438 C 28.15625 10.886719 26.675781 7.601562 24.3125 5.222656 Z M 24.3125 5.222656 " fill-opacity="1" fill-rule="nonzero"/></g><path fill="#2b5957" d="M 8.238281 6.597656 C 8.597656 6.242188 8.988281 5.917969 9.394531 5.613281 C 9.804688 5.304688 10.230469 5.035156 10.6875 4.796875 L 10.671875 4.777344 C 11.011719 4.609375 11.417969 4.726562 11.605469 5.066406 C 11.726562 5.289062 11.710938 5.5625 11.574219 5.75 C 10.671875 7.464844 10.367188 9.421875 10.636719 11.292969 C 10.910156 13.148438 11.761719 14.914062 13.1875 16.34375 C 14.601562 17.757812 16.386719 18.605469 18.222656 18.878906 C 20.128906 19.167969 22.082031 18.84375 23.820312 17.925781 C 24.140625 17.738281 24.550781 17.875 24.738281 18.199219 C 24.855469 18.4375 24.839844 18.691406 24.703125 18.894531 C 24.464844 19.320312 24.210938 19.730469 23.921875 20.136719 C 23.613281 20.546875 23.273438 20.9375 22.917969 21.292969 C 20.894531 23.316406 18.238281 24.339844 15.570312 24.339844 C 12.917969 24.339844 10.261719 23.316406 8.238281 21.292969 C 6.199219 19.269531 5.195312 16.597656 5.195312 13.945312 C 5.195312 11.292969 6.199219 8.640625 8.238281 6.597656 Z M 8.238281 6.597656 " fill-opacity="1" fill-rule="nonzero"/></svg>