<svg xmlns="http://www.w3.org/2000/svg" xmlns:xlink="http://www.w3.org/1999/xlink" width="40" zoomAndPan="magnify" viewBox="0 0 30 30.000001" height="40" preserveAspectRatio="xMidYMid meet" version="1.0"><defs><clipPath id="ec346bfee5"><path d="M 0.484375 3.972656 L 29.515625 3.972656 L 29.515625 25.023438 L 0.484375 25.023438 Z M 0.484375 3.972656 " clip-rule="nonzero"/></clipPath></defs><g clip-path="url(#ec346bfee5)"><path fill="#2b5957" d="M 1.878906 23.675781 L 1.878906 6.300781 L 14.519531 18.59375 C 14.652344 18.726562 14.824219 18.792969 15 18.792969 C 15.175781 18.792969 15.347656 18.726562 15.480469 18.59375 L 28.121094 6.300781 L 28.121094 23.675781 Z M 27.109375 5.355469 L 15 17.136719 L 2.890625 5.355469 Z M 29.5 4.640625 C 29.5 4.628906 29.5 4.613281 29.5 4.601562 C 29.496094 4.589844 29.496094 4.578125 29.492188 4.570312 C 29.492188 4.558594 29.492188 4.546875 29.488281 4.535156 C 29.488281 4.523438 29.484375 4.511719 29.480469 4.5 C 29.476562 4.488281 29.476562 4.480469 29.472656 4.46875 C 29.46875 4.457031 29.464844 4.445312 29.460938 4.433594 C 29.457031 4.425781 29.453125 4.414062 29.449219 4.40625 C 29.445312 4.394531 29.441406 4.382812 29.4375 4.375 C 29.433594 4.363281 29.425781 4.351562 29.421875 4.34375 C 29.417969 4.332031 29.410156 4.324219 29.40625 4.3125 C 29.398438 4.304688 29.394531 4.292969 29.386719 4.285156 C 29.382812 4.273438 29.375 4.265625 29.367188 4.253906 C 29.359375 4.246094 29.355469 4.238281 29.347656 4.230469 C 29.339844 4.21875 29.328125 4.210938 29.320312 4.199219 C 29.316406 4.195312 29.3125 4.1875 29.304688 4.183594 C 29.304688 4.179688 29.304688 4.179688 29.300781 4.179688 C 29.292969 4.167969 29.28125 4.160156 29.269531 4.148438 C 29.265625 4.144531 29.257812 4.136719 29.25 4.132812 C 29.242188 4.125 29.230469 4.117188 29.222656 4.109375 C 29.214844 4.105469 29.207031 4.097656 29.195312 4.09375 C 29.191406 4.085938 29.183594 4.082031 29.175781 4.078125 C 29.152344 4.0625 29.125 4.046875 29.097656 4.035156 C 29.089844 4.035156 29.085938 4.03125 29.078125 4.027344 C 29.078125 4.027344 29.074219 4.027344 29.070312 4.023438 C 29.039062 4.011719 29.003906 4 28.96875 3.992188 C 28.964844 3.992188 28.957031 3.988281 28.953125 3.988281 C 28.941406 3.984375 28.929688 3.984375 28.921875 3.984375 C 28.910156 3.980469 28.894531 3.980469 28.882812 3.976562 C 28.875 3.976562 28.867188 3.976562 28.855469 3.976562 C 28.84375 3.976562 28.828125 3.972656 28.816406 3.972656 C 28.8125 3.972656 28.8125 3.972656 28.8125 3.972656 L 1.1875 3.972656 C 1.1875 3.972656 1.1875 3.972656 1.183594 3.972656 C 1.171875 3.972656 1.15625 3.976562 1.140625 3.976562 C 1.132812 3.976562 1.125 3.976562 1.117188 3.976562 C 1.101562 3.980469 1.089844 3.980469 1.078125 3.984375 C 1.066406 3.984375 1.058594 3.984375 1.046875 3.988281 C 1.039062 3.988281 1.03125 3.992188 1.019531 3.996094 C 0.996094 4 0.96875 4.007812 0.945312 4.019531 C 0.9375 4.023438 0.929688 4.023438 0.921875 4.027344 C 0.917969 4.027344 0.917969 4.03125 0.914062 4.03125 C 0.882812 4.042969 0.851562 4.0625 0.824219 4.078125 C 0.816406 4.082031 0.808594 4.085938 0.804688 4.09375 C 0.792969 4.097656 0.789062 4.101562 0.78125 4.109375 C 0.769531 4.117188 0.757812 4.125 0.75 4.132812 C 0.742188 4.136719 0.734375 4.144531 0.730469 4.148438 C 0.71875 4.160156 0.707031 4.167969 0.699219 4.179688 C 0.695312 4.179688 0.695312 4.179688 0.695312 4.183594 C 0.6875 4.1875 0.683594 4.195312 0.679688 4.199219 C 0.671875 4.210938 0.660156 4.21875 0.652344 4.230469 C 0.644531 4.238281 0.640625 4.246094 0.632812 4.253906 C 0.625 4.265625 0.617188 4.273438 0.613281 4.285156 C 0.605469 4.292969 0.601562 4.304688 0.59375 4.3125 C 0.589844 4.324219 0.582031 4.332031 0.578125 4.34375 C 0.574219 4.351562 0.566406 4.363281 0.5625 4.375 C 0.558594 4.382812 0.554688 4.394531 0.550781 4.40625 C 0.546875 4.414062 0.542969 4.425781 0.539062 4.433594 C 0.535156 4.445312 0.53125 4.457031 0.527344 4.46875 C 0.523438 4.480469 0.523438 4.488281 0.519531 4.5 C 0.515625 4.511719 0.511719 4.523438 0.511719 4.535156 C 0.507812 4.546875 0.507812 4.558594 0.507812 4.570312 C 0.503906 4.578125 0.503906 4.589844 0.5 4.601562 C 0.5 4.613281 0.5 4.628906 0.5 4.640625 C 0.5 4.648438 0.5 4.65625 0.5 4.664062 L 0.5 24.367188 C 0.5 24.746094 0.808594 25.054688 1.1875 25.054688 L 28.8125 25.054688 C 29.191406 25.054688 29.5 24.746094 29.5 24.367188 L 29.5 4.664062 C 29.5 4.65625 29.5 4.648438 29.5 4.640625 " fill-opacity="1" fill-rule="nonzero"/></g></svg>