<svg xmlns="http://www.w3.org/2000/svg" xmlns:xlink="http://www.w3.org/1999/xlink" width="40" zoomAndPan="magnify" viewBox="0 0 30 30.000001" height="40" preserveAspectRatio="xMidYMid meet" version="1.0"><defs><clipPath id="4b27a72a85"><path d="M 0.484375 0.636719 L 29.515625 0.636719 L 29.515625 28.214844 L 0.484375 28.214844 Z M 0.484375 0.636719 " clip-rule="nonzero"/></clipPath><clipPath id="2770f223eb"><path d="M 0.484375 0.636719 L 15 0.636719 L 15 28.214844 L 0.484375 28.214844 Z M 0.484375 0.636719 " clip-rule="nonzero"/></clipPath></defs><g clip-path="url(#4b27a72a85)"><path fill="#ffffff" d="M 29.351562 11.222656 C 29.273438 10.996094 29.074219 10.832031 28.839844 10.800781 L 19.742188 9.59375 L 15.5 1.09375 C 15.289062 0.667969 14.585938 0.667969 14.375 1.09375 L 10.132812 9.59375 L 1.035156 10.800781 C 0.800781 10.832031 0.601562 10.996094 0.523438 11.222656 C 0.445312 11.449219 0.503906 11.699219 0.675781 11.867188 L 7.347656 18.539062 L 5.527344 27.632812 C 5.480469 27.867188 5.574219 28.109375 5.761719 28.253906 C 5.953125 28.398438 6.210938 28.421875 6.425781 28.316406 L 14.9375 24.0625 L 23.449219 28.316406 C 23.539062 28.359375 23.636719 28.382812 23.730469 28.382812 C 23.863281 28.382812 24 28.339844 24.109375 28.253906 C 24.300781 28.105469 24.390625 27.867188 24.34375 27.632812 L 22.527344 18.539062 L 29.199219 11.867188 C 29.371094 11.699219 29.425781 11.449219 29.351562 11.222656 Z M 21.402344 17.890625 C 21.253906 18.039062 21.1875 18.25 21.230469 18.457031 L 22.863281 26.621094 L 15.21875 22.796875 C 15.128906 22.753906 15.03125 22.730469 14.9375 22.730469 C 14.839844 22.730469 14.746094 22.753906 14.65625 22.796875 L 7.011719 26.621094 L 8.644531 18.457031 C 8.683594 18.25 8.621094 18.039062 8.472656 17.890625 L 2.460938 11.878906 L 10.628906 10.796875 C 10.835938 10.769531 11.015625 10.640625 11.109375 10.453125 L 14.9375 2.78125 L 18.765625 10.453125 C 18.859375 10.640625 19.039062 10.769531 19.246094 10.796875 L 27.414062 11.878906 Z M 21.402344 17.890625 " fill-opacity="1" fill-rule="nonzero"/></g><g clip-path="url(#2770f223eb)"><path fill="#ffffff" d="M 15.058594 23.640625 L 15.058594 0.671875 L 10.546875 9.761719 L 0.484375 11.21875 L 7.769531 18.367188 L 6.035156 28.359375 Z M 15.058594 23.640625 " fill-opacity="1" fill-rule="nonzero"/></g></svg>