<svg xmlns="http://www.w3.org/2000/svg" xmlns:xlink="http://www.w3.org/1999/xlink" width="40" zoomAndPan="magnify" viewBox="0 0 30 30.000001" height="40" preserveAspectRatio="xMidYMid meet" version="1.0"><defs><clipPath id="d78222c8ae"><path d="M 0.484375 0 L 29.515625 0 L 29.515625 27.582031 L 0.484375 27.582031 Z M 0.484375 0 " clip-rule="nonzero"/></clipPath></defs><g clip-path="url(#d78222c8ae)"><path fill="#ffffff" d="M 29.351562 10.585938 C 29.273438 10.359375 29.074219 10.199219 28.839844 10.167969 L 19.742188 8.960938 L 15.5 0.457031 C 15.289062 0.03125 14.585938 0.03125 14.375 0.457031 L 10.132812 8.960938 L 1.035156 10.167969 C 0.800781 10.199219 0.601562 10.359375 0.523438 10.585938 C 0.445312 10.8125 0.503906 11.0625 0.675781 11.234375 L 7.347656 17.90625 L 5.527344 26.996094 C 5.480469 27.230469 5.574219 27.472656 5.761719 27.617188 C 5.953125 27.765625 6.210938 27.789062 6.425781 27.683594 L 14.9375 23.425781 L 23.449219 27.683594 C 23.539062 27.726562 23.636719 27.75 23.730469 27.75 C 23.863281 27.75 24 27.703125 24.109375 27.617188 C 24.300781 27.472656 24.390625 27.230469 24.34375 26.996094 L 22.527344 17.90625 L 29.199219 11.234375 C 29.371094 11.0625 29.425781 10.8125 29.351562 10.585938 Z M 21.402344 17.253906 C 21.253906 17.402344 21.1875 17.617188 21.230469 17.820312 L 22.863281 25.984375 L 15.21875 22.160156 C 15.128906 22.117188 15.03125 22.09375 14.9375 22.09375 C 14.839844 22.09375 14.746094 22.117188 14.65625 22.160156 L 7.011719 25.984375 L 8.644531 17.820312 C 8.683594 17.617188 8.621094 17.402344 8.472656 17.253906 L 2.460938 11.246094 L 10.628906 10.160156 C 10.835938 10.132812 11.015625 10.003906 11.109375 9.820312 L 14.9375 2.148438 L 18.765625 9.820312 C 18.859375 10.003906 19.039062 10.132812 19.246094 10.160156 L 27.414062 11.246094 Z M 21.402344 17.253906 " fill-opacity="1" fill-rule="nonzero"/></g></svg>