<svg width="25" height="20" viewBox="0 0 25 20" fill="none" xmlns="http://www.w3.org/2000/svg">
<path fill-rule="evenodd" clip-rule="evenodd" d="M1 1.3758L2.3758 0L5.46644 3.09064L6.90107 4.52527L9.28285 6.90705L10.699 8.32317L13.5222 11.1464L14.9383 12.5625L17.3563 14.9805L18.7857 16.4099L20.7197 18.3439L19.3439 19.7197L17.118 17.4938C15.6462 18.2982 13.937 18.8437 12.0064 18.8437C8.10483 18.8437 5.10723 16.6161 3.14713 14.5253C2.15796 13.4702 1.40277 12.4189 0.894761 11.6323C0.640135 11.238 0.445971 10.9077 0.314079 10.6732C0.248095 10.5559 0.197585 10.4624 0.16278 10.3966C0.145375 10.3637 0.131886 10.3378 0.122345 10.3192L0.110992 10.297L0.107539 10.2902L0.10637 10.2878L0.105925 10.2869C0.105741 10.2866 0.105573 10.2862 1 9.83903C0.105573 9.39181 0.105741 9.39148 0.105925 9.39111L0.10637 9.39022L0.107539 9.3879L0.110992 9.38106L0.122345 9.35884C0.131886 9.34028 0.145375 9.31431 0.16278 9.28141C0.197585 9.21564 0.248095 9.12212 0.314079 9.00482C0.445971 8.77034 0.640135 8.44004 0.894761 8.04578C1.40277 7.25918 2.15796 6.20789 3.14713 5.15277C3.40133 4.88162 3.67298 4.60817 3.96179 4.33758L1 1.3758ZM5.37666 5.75246C5.10684 6.00324 4.84992 6.26068 4.6062 6.52065C3.71929 7.46669 3.03614 8.41656 2.57484 9.13083C2.39515 9.40906 2.25011 9.65 2.14073 9.83903C2.25011 10.0281 2.39515 10.269 2.57484 10.5472C3.03614 11.2615 3.71929 12.2114 4.6062 13.1574C6.39827 15.0689 8.90385 16.8437 12.0064 16.8437C13.3256 16.8437 14.5368 16.5228 15.6312 16.007L13.2635 13.6393C12.8682 13.77 12.4455 13.8408 12.0064 13.8408C9.79627 13.8408 8.00463 12.0491 8.00463 9.83903C8.00463 9.39986 8.07537 8.97722 8.20608 8.58188L5.37666 5.75246ZM10.1122 10.488C10.312 11.0715 10.7739 11.5334 11.3574 11.7332L10.1122 10.488ZM1 9.83903L0.105573 9.39181C-0.0351909 9.67334 -0.0351909 10.0047 0.105573 10.2862L1 9.83903ZM8.66878 3.54139L7.16717 2.03977C8.57619 1.31523 10.1937 0.834395 12.0064 0.834395C15.9079 0.834395 18.9055 3.06199 20.8656 5.15277C21.8548 6.20789 22.61 7.25918 23.118 8.04578C23.3726 8.44004 23.5668 8.77034 23.6987 9.00482C23.7646 9.12212 23.8152 9.21564 23.85 9.28141C23.8674 9.31431 23.8809 9.34028 23.8904 9.35884L23.9017 9.38106L23.9052 9.3879L23.9064 9.39022L23.9068 9.39111C23.907 9.39148 23.9072 9.39181 23.0127 9.83903C23.9072 10.2862 23.907 10.2866 23.9068 10.2869L23.9064 10.2878L23.9052 10.2902L23.9017 10.297L23.8904 10.3192C23.8809 10.3378 23.8674 10.3637 23.85 10.3966C23.8152 10.4624 23.7646 10.5559 23.6987 10.6732C23.5668 10.9077 23.3726 11.238 23.118 11.6323C22.61 12.4189 21.8548 13.4702 20.8656 14.5253C20.675 14.7286 20.4745 14.9333 20.2644 15.137L18.8501 13.7227C19.0426 13.5367 19.2281 13.3477 19.4065 13.1574C20.2935 12.2114 20.9766 11.2615 21.4379 10.5472C21.6176 10.269 21.7626 10.0281 21.872 9.83903C21.7626 9.65 21.6176 9.40906 21.4379 9.13083C20.9766 8.41656 20.2935 7.46669 19.4065 6.52065C17.6145 4.60911 15.1089 2.8344 12.0064 2.8344C10.8015 2.8344 9.68674 3.10203 8.66878 3.54139ZM23.0127 9.83903L23.9072 9.39181C24.0479 9.67334 24.0479 10.0047 23.9072 10.2862L23.0127 9.83903ZM15.8989 10.7715L11.0739 5.94651C11.3731 5.8751 11.6853 5.83729 12.0064 5.83729C14.2165 5.83729 16.0081 7.62893 16.0081 9.83903C16.0081 10.1601 15.9703 10.4723 15.8989 10.7715Z" fill="#FFFAFA"/>
</svg>
