<svg xmlns="http://www.w3.org/2000/svg" xmlns:xlink="http://www.w3.org/1999/xlink" width="40" zoomAndPan="magnify" viewBox="0 0 30 30.000001" height="40" preserveAspectRatio="xMidYMid meet" version="1.0"><defs><clipPath id="591fb91484"><path d="M 0.484375 0 L 29.515625 0 L 29.515625 29.03125 L 0.484375 29.03125 Z M 0.484375 0 " clip-rule="nonzero"/></clipPath></defs><g clip-path="url(#591fb91484)"><path fill="#ffffff" d="M 27.914062 0 L 2.085938 0 C 1.203125 0 0.484375 0.71875 0.484375 1.601562 L 0.484375 27.429688 C 0.484375 28.316406 1.203125 29.03125 2.085938 29.03125 L 15.992188 29.03125 L 15.992188 17.789062 L 12.207031 17.789062 L 12.207031 13.40625 L 15.992188 13.40625 L 15.992188 10.175781 C 15.992188 6.425781 18.28125 4.386719 21.628906 4.386719 C 23.230469 4.386719 24.605469 4.503906 25.007812 4.558594 L 25.007812 8.476562 L 22.6875 8.480469 C 20.871094 8.480469 20.515625 9.34375 20.515625 10.609375 L 20.515625 13.410156 L 24.855469 13.410156 L 24.292969 17.789062 L 20.515625 17.789062 L 20.515625 29.03125 L 27.914062 29.03125 C 28.796875 29.03125 29.515625 28.316406 29.515625 27.429688 L 29.515625 1.601562 C 29.515625 0.71875 28.796875 0 27.914062 0 Z M 27.914062 0 " fill-opacity="1" fill-rule="nonzero"/></g></svg>