<svg xmlns="http://www.w3.org/2000/svg" xmlns:xlink="http://www.w3.org/1999/xlink" width="40" zoomAndPan="magnify" viewBox="0 0 30 30.000001" height="40" preserveAspectRatio="xMidYMid meet" version="1.0"><defs><clipPath id="47e91b6e3f"><path d="M 0.484375 1.605469 L 29 1.605469 L 29 27 L 0.484375 27 Z M 0.484375 1.605469 " clip-rule="nonzero"/></clipPath></defs><g clip-path="url(#47e91b6e3f)"><path fill="#ffffff" d="M 2.871094 15.414062 L 14.164062 26.707031 C 14.425781 26.96875 14.859375 26.96875 15.125 26.707031 L 26.414062 15.414062 C 29.515625 12.3125 29.515625 7.289062 26.414062 4.1875 C 23.3125 1.085938 18.289062 1.085938 15.1875 4.1875 C 14.753906 4.613281 14.640625 4.804688 14.640625 4.804688 C 14.640625 4.804688 14.304688 4.386719 14.097656 4.1875 C 10.996094 1.085938 5.972656 1.085938 2.871094 4.1875 C -0.230469 7.289062 -0.230469 12.3125 2.871094 15.414062 Z M 2.871094 15.414062 " fill-opacity="1" fill-rule="nonzero"/></g></svg>