<svg xmlns="http://www.w3.org/2000/svg" xmlns:xlink="http://www.w3.org/1999/xlink" width="40" zoomAndPan="magnify" viewBox="0 0 30 30.000001" height="40" preserveAspectRatio="xMidYMid meet" version="1.0"><defs><clipPath id="fdeeff2df2"><path d="M 0.484375 1.453125 L 29.515625 1.453125 L 29.515625 27.582031 L 0.484375 27.582031 Z M 0.484375 1.453125 " clip-rule="nonzero"/></clipPath></defs><g clip-path="url(#fdeeff2df2)"><path fill="#ffffff" d="M 21.390625 1.453125 C 17.277344 1.453125 15 4.417969 15 4.417969 C 15 4.417969 12.722656 1.453125 8.609375 1.453125 C 4.296875 1.453125 0.800781 4.949219 0.800781 9.261719 C 0.800781 15.183594 7.773438 20.925781 9.71875 22.738281 C 11.957031 24.824219 15 27.507812 15 27.507812 C 15 27.507812 18.042969 24.824219 20.28125 22.738281 C 22.226562 20.925781 29.199219 15.183594 29.199219 9.261719 C 29.199219 4.949219 25.703125 1.453125 21.390625 1.453125 Z M 18.992188 20.070312 C 18.742188 20.296875 18.523438 20.492188 18.34375 20.660156 C 17.277344 21.652344 16.015625 22.792969 15 23.707031 C 13.984375 22.792969 12.722656 21.652344 11.65625 20.660156 C 11.476562 20.492188 11.257812 20.292969 11.007812 20.070312 C 8.992188 18.246094 3.640625 13.40625 3.640625 9.261719 C 3.640625 6.519531 5.867188 4.292969 8.609375 4.292969 C 11.203125 4.292969 12.707031 6.101562 12.746094 6.148438 L 15 8.550781 L 17.253906 6.148438 C 17.265625 6.128906 18.796875 4.292969 21.390625 4.292969 C 24.132812 4.292969 26.359375 6.519531 26.359375 9.261719 C 26.359375 13.40625 21.007812 18.246094 18.992188 20.070312 Z M 18.992188 20.070312 " fill-opacity="1" fill-rule="nonzero"/></g></svg>