<svg xmlns="http://www.w3.org/2000/svg" xmlns:xlink="http://www.w3.org/1999/xlink" width="40" zoomAndPan="magnify" viewBox="0 0 30 30.000001" height="40" preserveAspectRatio="xMidYMid meet" version="1.0"><defs><clipPath id="d7284d207c"><path d="M 0.484375 0 L 29.515625 0 L 29.515625 29.03125 L 0.484375 29.03125 Z M 0.484375 0 " clip-rule="nonzero"/></clipPath></defs><g clip-path="url(#d7284d207c)"><path fill="#ffffff" d="M 15 2.617188 C 18.875 2.617188 19.335938 2.632812 20.867188 2.703125 C 24.800781 2.878906 26.636719 4.746094 26.816406 8.652344 C 26.886719 10.183594 26.902344 10.640625 26.902344 14.515625 C 26.902344 18.394531 26.886719 18.851562 26.816406 20.382812 C 26.636719 24.285156 24.804688 26.15625 20.867188 26.332031 C 19.335938 26.402344 18.878906 26.417969 15 26.417969 C 11.125 26.417969 10.664062 26.402344 9.132812 26.332031 C 5.191406 26.152344 3.363281 24.277344 3.183594 20.382812 C 3.113281 18.851562 3.097656 18.394531 3.097656 14.515625 C 3.097656 10.640625 3.113281 10.183594 3.183594 8.652344 C 3.363281 4.746094 5.195312 2.878906 9.132812 2.699219 C 10.664062 2.632812 11.125 2.617188 15 2.617188 Z M 15 0 C 11.058594 0 10.5625 0.015625 9.015625 0.0859375 C 3.742188 0.328125 0.8125 3.253906 0.570312 8.53125 C 0.5 10.082031 0.484375 10.574219 0.484375 14.515625 C 0.484375 18.457031 0.5 18.953125 0.570312 20.5 C 0.8125 25.773438 3.738281 28.703125 9.015625 28.945312 C 10.5625 29.015625 11.058594 29.03125 15 29.03125 C 18.941406 29.03125 19.4375 29.015625 20.984375 28.945312 C 26.253906 28.703125 29.191406 25.777344 29.429688 20.5 C 29.5 18.953125 29.515625 18.457031 29.515625 14.515625 C 29.515625 10.574219 29.5 10.082031 29.429688 8.53125 C 29.191406 3.265625 26.261719 0.332031 20.988281 0.0898438 C 19.4375 0.015625 18.941406 0 15 0 Z M 15 7.0625 C 10.882812 7.0625 7.546875 10.398438 7.546875 14.515625 C 7.546875 18.632812 10.882812 21.972656 15 21.972656 C 19.117188 21.972656 22.453125 18.632812 22.453125 14.515625 C 22.453125 10.398438 19.117188 7.0625 15 7.0625 Z M 15 19.355469 C 12.328125 19.355469 10.160156 17.191406 10.160156 14.515625 C 10.160156 11.84375 12.328125 9.675781 15 9.675781 C 17.671875 9.675781 19.839844 11.84375 19.839844 14.515625 C 19.839844 17.191406 17.671875 19.355469 15 19.355469 Z M 22.75 5.027344 C 21.785156 5.027344 21.007812 5.804688 21.007812 6.769531 C 21.007812 7.730469 21.785156 8.511719 22.75 8.511719 C 23.710938 8.511719 24.488281 7.730469 24.488281 6.769531 C 24.488281 5.804688 23.710938 5.027344 22.75 5.027344 Z M 22.75 5.027344 " fill-opacity="1" fill-rule="nonzero"/></g></svg>