<svg xmlns="http://www.w3.org/2000/svg" xmlns:xlink="http://www.w3.org/1999/xlink" width="40" zoomAndPan="magnify" viewBox="0 0 30 30.000001" height="40" preserveAspectRatio="xMidYMid meet" version="1.0"><defs><clipPath id="5b0fbab6f0"><path d="M 0.484375 0 L 29.515625 0 L 29.515625 29.03125 L 0.484375 29.03125 Z M 0.484375 0 " clip-rule="nonzero"/></clipPath><clipPath id="b12bf69dc8"><path d="M 3.386719 2.902344 L 26.613281 2.902344 L 26.613281 26.128906 L 3.386719 26.128906 Z M 3.386719 2.902344 " clip-rule="nonzero"/></clipPath></defs><g clip-path="url(#5b0fbab6f0)"><path fill="#ffffff" d="M 15 0 C 6.992188 0 0.484375 6.507812 0.484375 14.515625 C 0.484375 22.527344 6.992188 29.03125 15 29.03125 C 23.007812 29.03125 29.515625 22.527344 29.515625 14.515625 C 29.515625 6.507812 23.007812 0 15 0 Z M 15 1.261719 C 22.328125 1.261719 28.253906 7.1875 28.253906 14.515625 C 28.253906 21.84375 22.328125 27.769531 15 27.769531 C 7.671875 27.769531 1.746094 21.84375 1.746094 14.515625 C 1.746094 7.1875 7.671875 1.261719 15 1.261719 Z M 15 1.261719 " fill-opacity="1" fill-rule="nonzero"/></g><g clip-path="url(#b12bf69dc8)"><path fill="#ffffff" d="M 10.304688 8.652344 L 7.957031 6.304688 C 7.636719 5.980469 7.113281 5.980469 6.789062 6.304688 C 6.464844 6.625 6.464844 7.148438 6.789062 7.472656 L 9.136719 9.820312 C 9.292969 9.984375 9.511719 10.070312 9.726562 10.070312 C 9.933594 10.070312 10.148438 9.984375 10.304688 9.820312 C 10.628906 9.496094 10.628906 8.972656 10.304688 8.652344 Z M 7.535156 13.683594 L 4.21875 13.683594 C 3.761719 13.683594 3.386719 14.058594 3.386719 14.515625 C 3.386719 14.972656 3.761719 15.34375 4.21875 15.34375 L 7.535156 15.34375 C 7.992188 15.34375 8.367188 14.972656 8.367188 14.515625 C 8.367188 14.058594 7.992188 13.683594 7.535156 13.683594 Z M 10.304688 19.210938 C 9.980469 18.886719 9.460938 18.886719 9.136719 19.210938 L 6.789062 21.558594 C 6.464844 21.878906 6.464844 22.402344 6.789062 22.726562 C 6.957031 22.882812 7.164062 22.964844 7.378906 22.964844 C 7.585938 22.964844 7.800781 22.882812 7.957031 22.726562 L 10.304688 20.378906 C 10.628906 20.058594 10.628906 19.535156 10.304688 19.210938 Z M 15 21.152344 C 14.542969 21.152344 14.171875 21.523438 14.171875 21.980469 L 14.171875 25.300781 C 14.171875 25.757812 14.542969 26.128906 15 26.128906 C 15.457031 26.128906 15.828125 25.757812 15.828125 25.300781 L 15.828125 21.980469 C 15.828125 21.523438 15.457031 21.152344 15 21.152344 Z M 23.210938 21.558594 L 20.863281 19.210938 C 20.542969 18.886719 20.019531 18.886719 19.695312 19.210938 C 19.371094 19.535156 19.371094 20.054688 19.695312 20.378906 L 22.042969 22.726562 C 22.199219 22.882812 22.417969 22.964844 22.625 22.964844 C 22.839844 22.964844 23.046875 22.882812 23.210938 22.726562 C 23.535156 22.402344 23.535156 21.878906 23.210938 21.558594 Z M 25.78125 13.683594 L 22.464844 13.683594 C 22.007812 13.683594 21.632812 14.058594 21.632812 14.515625 C 21.632812 14.972656 22.007812 15.34375 22.464844 15.34375 L 25.78125 15.34375 C 26.238281 15.34375 26.613281 14.972656 26.613281 14.515625 C 26.613281 14.058594 26.238281 13.683594 25.78125 13.683594 Z M 23.210938 6.304688 C 22.886719 5.980469 22.367188 5.980469 22.042969 6.304688 L 19.695312 8.652344 C 19.371094 8.972656 19.371094 9.496094 19.695312 9.820312 C 19.855469 9.984375 20.070312 10.070312 20.277344 10.070312 C 20.492188 10.070312 20.707031 9.984375 20.863281 9.820312 L 23.210938 7.472656 C 23.535156 7.148438 23.535156 6.625 23.210938 6.304688 Z M 15 2.902344 C 14.542969 2.902344 14.171875 3.277344 14.171875 3.734375 L 14.171875 7.050781 C 14.171875 7.507812 14.542969 7.882812 15 7.882812 C 15.457031 7.882812 15.828125 7.507812 15.828125 7.050781 L 15.828125 3.734375 C 15.828125 3.277344 15.457031 2.902344 15 2.902344 Z M 20.804688 14.515625 C 20.804688 17.726562 18.210938 20.320312 15 20.320312 C 11.789062 20.320312 9.195312 17.726562 9.195312 14.515625 C 9.195312 11.304688 11.789062 8.710938 15 8.710938 C 18.210938 8.710938 20.804688 11.304688 20.804688 14.515625 Z M 20.804688 14.515625 " fill-opacity="1" fill-rule="nonzero"/></g></svg>