<svg xmlns="http://www.w3.org/2000/svg" xmlns:xlink="http://www.w3.org/1999/xlink" width="40" zoomAndPan="magnify" viewBox="0 0 30 30.000001" height="40" preserveAspectRatio="xMidYMid meet" version="1.0"><defs><clipPath id="23b54428d5"><path d="M 0.484375 0 L 29.515625 0 L 29.515625 29 L 0.484375 29 Z M 0.484375 0 " clip-rule="nonzero"/></clipPath></defs><g clip-path="url(#23b54428d5)"><path fill="#ffffff" d="M 25.890625 0.210938 L 4.101562 0.210938 C 2.222656 0.210938 0.695312 1.738281 0.695312 3.617188 L 0.695312 25.40625 C 0.695312 27.285156 2.222656 28.808594 4.101562 28.808594 L 25.890625 28.808594 C 27.769531 28.808594 29.292969 27.285156 29.292969 25.40625 L 29.292969 3.617188 C 29.292969 1.738281 27.769531 0.210938 25.890625 0.210938 Z M 9.546875 11.105469 L 9.546875 24.042969 L 5.460938 24.042969 L 5.460938 11.105469 Z M 5.460938 7.339844 C 5.460938 6.386719 6.277344 5.660156 7.503906 5.660156 C 8.730469 5.660156 9.5 6.386719 9.546875 7.339844 C 9.546875 8.292969 8.785156 9.0625 7.503906 9.0625 C 6.277344 9.0625 5.460938 8.292969 5.460938 7.339844 Z M 24.527344 24.042969 L 20.441406 24.042969 C 20.441406 24.042969 20.441406 17.738281 20.441406 17.234375 C 20.441406 15.871094 19.761719 14.511719 18.058594 14.484375 L 18.003906 14.484375 C 16.355469 14.484375 15.675781 15.886719 15.675781 17.234375 C 15.675781 17.855469 15.675781 24.042969 15.675781 24.042969 L 11.589844 24.042969 L 11.589844 11.105469 L 15.675781 11.105469 L 15.675781 12.847656 C 15.675781 12.847656 16.988281 11.105469 19.632812 11.105469 C 22.335938 11.105469 24.527344 12.964844 24.527344 16.730469 Z M 24.527344 24.042969 " fill-opacity="1" fill-rule="nonzero"/></g></svg>