<svg xmlns="http://www.w3.org/2000/svg" xmlns:xlink="http://www.w3.org/1999/xlink" width="40" zoomAndPan="magnify" viewBox="0 0 30 30.000001" height="40" preserveAspectRatio="xMidYMid meet" version="1.0"><defs><clipPath id="df708f4edd"><path d="M 0.484375 0.0742188 L 29.265625 0.0742188 L 29.265625 28.78125 L 0.484375 28.78125 Z M 0.484375 0.0742188 " clip-rule="nonzero"/></clipPath></defs><path fill="#ffffff" d="M 18.824219 8.195312 C 18.785156 8.234375 18.734375 8.273438 18.679688 8.304688 C 18.355469 8.488281 17.945312 8.375 17.761719 8.050781 C 17.460938 7.523438 17.089844 7.039062 16.65625 6.605469 C 16.394531 6.339844 16.394531 5.914062 16.65625 5.648438 C 16.921875 5.386719 17.351562 5.386719 17.613281 5.648438 C 18.132812 6.167969 18.578125 6.75 18.933594 7.382812 C 19.089844 7.652344 19.035156 7.984375 18.824219 8.195312 " fill-opacity="1" fill-rule="nonzero"/><path fill="#ffffff" d="M 15.445312 5.097656 C 15.253906 5.292969 14.949219 5.355469 14.6875 5.234375 C 13.109375 4.515625 11.265625 4.429688 9.625 5.007812 C 9.273438 5.128906 8.890625 4.945312 8.765625 4.59375 C 8.640625 4.238281 8.828125 3.855469 9.179688 3.730469 C 11.171875 3.03125 13.328125 3.128906 15.25 4.003906 C 15.589844 4.160156 15.738281 4.5625 15.582031 4.902344 C 15.546875 4.976562 15.5 5.042969 15.445312 5.097656 " fill-opacity="1" fill-rule="nonzero"/><g clip-path="url(#df708f4edd)"><path fill="#ffffff" d="M 11.875 20.402344 C 9.464844 20.402344 7.203125 19.464844 5.5 17.761719 C 3.800781 16.058594 2.863281 13.796875 2.863281 11.390625 C 2.863281 8.984375 3.800781 6.71875 5.5 5.019531 C 7.203125 3.316406 9.464844 2.378906 11.875 2.378906 C 14.28125 2.378906 16.542969 3.316406 18.246094 5.019531 C 19.949219 6.71875 20.886719 8.984375 20.886719 11.390625 C 20.886719 13.796875 19.949219 16.058594 18.246094 17.761719 C 16.542969 19.464844 14.28125 20.402344 11.875 20.402344 Z M 28.574219 25.140625 L 20.832031 18.21875 C 24.207031 13.804688 23.878906 7.464844 19.839844 3.425781 C 15.441406 -0.972656 8.308594 -0.972656 3.910156 3.425781 C -0.492188 7.824219 -0.492188 14.957031 3.910156 19.355469 C 7.945312 23.394531 14.289062 23.722656 18.703125 20.347656 L 25.625 28.089844 C 26.421875 28.984375 27.808594 29.023438 28.65625 28.175781 C 29.507812 27.324219 29.46875 25.9375 28.574219 25.140625 " fill-opacity="1" fill-rule="nonzero"/></g></svg>