<svg xmlns="http://www.w3.org/2000/svg" xmlns:xlink="http://www.w3.org/1999/xlink" width="40" zoomAndPan="magnify" viewBox="0 0 30 30.000001" height="40" preserveAspectRatio="xMidYMid meet" version="1.0"><defs><clipPath id="f0140aed34"><path d="M 0.488281 2.140625 L 29.515625 2.140625 L 29.515625 6.957031 L 0.488281 6.957031 Z M 0.488281 2.140625 " clip-rule="nonzero"/></clipPath><clipPath id="f25068d451"><path d="M 0.488281 11.664062 L 29.515625 11.664062 L 29.515625 16.59375 L 0.488281 16.59375 Z M 0.488281 11.664062 " clip-rule="nonzero"/></clipPath><clipPath id="e7d1969890"><path d="M 0.488281 21.296875 L 29.515625 21.296875 L 29.515625 26.09375 L 0.488281 26.09375 Z M 0.488281 21.296875 " clip-rule="nonzero"/></clipPath></defs><g clip-path="url(#f0140aed34)"><path fill="#2b5957" d="M 29.515625 6.9375 L 0.488281 6.9375 L 0.488281 2.140625 L 29.515625 2.140625 L 29.515625 6.9375 " fill-opacity="1" fill-rule="nonzero"/></g><g clip-path="url(#f25068d451)"><path fill="#2b5957" d="M 29.515625 16.535156 L 0.488281 16.535156 L 0.488281 11.738281 L 29.515625 11.738281 L 29.515625 16.535156 " fill-opacity="1" fill-rule="nonzero"/></g><g clip-path="url(#e7d1969890)"><path fill="#2b5957" d="M 29.515625 26.132812 L 0.488281 26.132812 L 0.488281 21.332031 L 29.515625 21.332031 L 29.515625 26.132812 " fill-opacity="1" fill-rule="nonzero"/></g></svg>