<svg width="24" height="24" viewBox="0 0 24 24" fill="none" xmlns="http://www.w3.org/2000/svg">
<path fill-rule="evenodd" clip-rule="evenodd" d="M13.7806 21.9188C14.413 21.7955 15.0364 21.6082 15.6327 21.3662C16.2381 21.115 16.8231 20.8067 17.3697 20.4414C17.9299 20.0669 18.4562 19.6308 18.9373 19.1444C19.4184 18.658 19.8498 18.126 20.2202 17.5597C20.5816 17.0071 20.8866 16.4157 21.135 15.8037C21.3745 15.2009 21.5597 14.5707 21.6816 13.9313C21.8036 13.2965 21.8669 12.648 21.8669 11.9995C21.8646 11.3533 21.8036 10.7025 21.6816 10.0677C21.649 9.89661 21.6118 9.72617 21.5703 9.55673L23.0758 8.03477C24.5307 12.248 23.5931 17.1184 20.2632 20.4848C15.6282 25.1704 8.11113 25.1704 3.4762 20.4848C-1.15873 15.7992 -1.15873 8.19985 3.4762 3.51422C7.94528 -1.00374 15.0939 -1.16541 19.7548 3.02921L18.4264 4.37207C18.0909 4.07614 17.7376 3.80358 17.3697 3.55761C16.8231 3.19226 16.2381 2.88399 15.6327 2.63281C15.0364 2.39077 14.413 2.20352 13.7806 2.08022C13.1526 1.95691 12.5089 1.89526 11.8697 1.89298C11.2282 1.89298 10.5867 1.95691 9.95878 2.08022C9.32633 2.20352 8.70292 2.39077 8.10662 2.63281C7.50127 2.88399 6.91626 3.19226 6.36965 3.55761C5.80948 3.93209 5.28319 4.36823 4.80208 4.8546C4.32097 5.34098 3.88955 5.87302 3.51912 6.43931C3.15772 6.99191 2.85279 7.58332 2.60433 8.19528C2.3649 8.79811 2.17968 9.42834 2.05771 10.0677C1.93574 10.7025 1.87249 11.351 1.8725 11.9995C1.87249 12.648 1.93574 13.2965 2.05771 13.9313C2.17968 14.5707 2.3649 15.2009 2.60433 15.8037C2.85053 16.418 3.15772 17.0071 3.51912 17.5597C3.88955 18.126 4.31871 18.6603 4.79982 19.1467C5.28093 19.6331 5.80948 20.0669 6.36965 20.4414C6.91626 20.8067 7.49902 21.1173 8.10662 21.3662C8.70292 21.6082 9.32634 21.7955 9.95878 21.9188C10.5867 22.0421 11.2282 22.106 11.8697 22.106C12.5112 22.106 13.1526 22.0421 13.7806 21.9188ZM5.95489 11.0211L11.615 16.7841L24 4.26358L22.657 2.89984L11.7866 13.8892L7.4695 9.48987L5.95489 11.0211Z" fill="#47DEA8"/>
</svg>
