<svg xmlns="http://www.w3.org/2000/svg" xmlns:xlink="http://www.w3.org/1999/xlink" width="40" zoomAndPan="magnify" viewBox="0 0 30 30.000001" height="40" preserveAspectRatio="xMidYMid meet" version="1.0"><defs><clipPath id="7fd1d2bad8"><path d="M 0.484375 0 L 29.515625 0 L 29.515625 29 L 0.484375 29 Z M 0.484375 0 " clip-rule="nonzero"/></clipPath></defs><g clip-path="url(#7fd1d2bad8)"><path fill="#ffffff" d="M 15.042969 0.335938 C 7.207031 0.335938 0.832031 6.710938 0.832031 14.546875 C 0.832031 22.382812 7.207031 28.757812 15.042969 28.757812 C 22.878906 28.757812 29.253906 22.382812 29.253906 14.546875 C 29.253906 6.710938 22.878906 0.335938 15.042969 0.335938 Z M 21.058594 20.933594 C 20.878906 21.203125 20.585938 21.347656 20.285156 21.347656 C 20.109375 21.347656 19.929688 21.296875 19.773438 21.191406 C 18.246094 20.171875 15.652344 19.492188 13.492188 19.492188 C 11.199219 19.496094 9.480469 20.058594 9.460938 20.0625 C 8.976562 20.226562 8.453125 19.964844 8.289062 19.480469 C 8.128906 18.992188 8.390625 18.46875 8.875 18.308594 C 8.957031 18.28125 10.902344 17.644531 13.492188 17.640625 C 15.652344 17.640625 18.660156 18.222656 20.800781 19.648438 C 21.226562 19.933594 21.339844 20.507812 21.058594 20.933594 Z M 22.90625 17.140625 C 22.703125 17.464844 22.359375 17.640625 22.003906 17.640625 C 21.8125 17.640625 21.617188 17.589844 21.445312 17.480469 C 18.675781 15.753906 15.828125 15.390625 13.375 15.414062 C 10.609375 15.4375 8.394531 15.964844 8.355469 15.976562 C 7.796875 16.136719 7.207031 15.808594 7.046875 15.246094 C 6.886719 14.679688 7.214844 14.09375 7.78125 13.9375 C 7.949219 13.886719 10.160156 13.34375 13.183594 13.320312 C 15.941406 13.296875 19.378906 13.695312 22.566406 15.679688 C 23.0625 15.992188 23.214844 16.644531 22.90625 17.140625 Z M 24.75 12.707031 C 24.519531 13.097656 24.105469 13.316406 23.683594 13.316406 C 23.46875 13.316406 23.253906 13.261719 23.058594 13.148438 C 19.828125 11.253906 15.90625 10.851562 13.179688 10.847656 C 13.167969 10.847656 13.15625 10.847656 13.144531 10.847656 C 9.847656 10.847656 7.3125 11.425781 7.285156 11.433594 C 6.621094 11.585938 5.957031 11.171875 5.804688 10.507812 C 5.648438 9.84375 6.0625 9.183594 6.726562 9.027344 C 6.839844 9 9.550781 8.375 13.144531 8.375 C 13.15625 8.375 13.171875 8.375 13.183594 8.375 C 16.214844 8.378906 20.601562 8.839844 24.308594 11.015625 C 24.898438 11.363281 25.09375 12.121094 24.75 12.707031 Z M 24.75 12.707031 " fill-opacity="1" fill-rule="nonzero"/></g></svg>