<svg xmlns="http://www.w3.org/2000/svg" xmlns:xlink="http://www.w3.org/1999/xlink" width="40" zoomAndPan="magnify" viewBox="0 0 30 30.000001" height="40" preserveAspectRatio="xMidYMid meet" version="1.0"><path fill="#1fcea2" d="M 25.777344 7.039062 C 25.070312 6.886719 24.40625 6.632812 23.78125 6.265625 C 23.15625 5.902344 22.605469 5.453125 22.125 4.910156 C 21.648438 4.371094 21.261719 3.769531 20.976562 3.105469 C 20.6875 2.445312 20.511719 1.753906 20.445312 1.035156 L 20.445312 0.410156 L 15.570312 0.410156 L 15.570312 19.753906 C 15.570312 20.179688 15.503906 20.597656 15.371094 21.003906 C 15.238281 21.414062 15.046875 21.789062 14.796875 22.136719 C 14.542969 22.484375 14.246094 22.785156 13.902344 23.039062 C 13.558594 23.292969 13.179688 23.488281 12.777344 23.625 C 12.371094 23.757812 11.953125 23.828125 11.523438 23.835938 C 11.097656 23.839844 10.675781 23.78125 10.269531 23.652344 C 9.859375 23.527344 9.480469 23.34375 9.128906 23.097656 C 8.777344 22.851562 8.472656 22.558594 8.210938 22.21875 C 7.949219 21.871094 7.746094 21.492188 7.605469 21.082031 C 7.460938 20.671875 7.386719 20.246094 7.378906 19.8125 C 7.371094 19.378906 7.429688 18.953125 7.558594 18.535156 C 7.6875 18.121094 7.875 17.734375 8.128906 17.378906 C 8.378906 17.023438 8.679688 16.714844 9.027344 16.457031 C 9.375 16.195312 9.757812 15.996094 10.167969 15.859375 C 10.582031 15.71875 11.007812 15.648438 11.441406 15.644531 C 11.875 15.640625 12.300781 15.707031 12.714844 15.839844 L 12.714844 10.886719 C 11.792969 10.757812 10.867188 10.773438 9.949219 10.933594 C 9.03125 11.097656 8.15625 11.394531 7.332031 11.828125 C 6.503906 12.261719 5.761719 12.808594 5.109375 13.476562 C 4.453125 14.140625 3.914062 14.890625 3.496094 15.722656 C 3.074219 16.554688 2.792969 17.433594 2.644531 18.355469 C 2.5 19.277344 2.496094 20.199219 2.640625 21.121094 C 2.78125 22.046875 3.0625 22.925781 3.480469 23.757812 C 3.898438 24.59375 4.433594 25.34375 5.085938 26.011719 C 5.707031 26.648438 6.40625 27.179688 7.1875 27.609375 C 7.96875 28.035156 8.796875 28.339844 9.667969 28.523438 C 10.539062 28.703125 11.417969 28.753906 12.304688 28.671875 C 13.1875 28.589844 14.042969 28.382812 14.867188 28.046875 C 15.691406 27.710938 16.449219 27.261719 17.140625 26.699219 C 17.832031 26.140625 18.425781 25.488281 18.921875 24.75 C 19.417969 24.011719 19.796875 23.21875 20.054688 22.367188 C 20.316406 21.515625 20.445312 20.644531 20.445312 19.753906 L 20.445312 9.871094 C 22.464844 11.3125 24.714844 12.035156 27.195312 12.03125 L 27.195312 7.1875 C 26.71875 7.1875 26.246094 7.136719 25.777344 7.039062 Z M 25.777344 7.039062 " fill-opacity="1" fill-rule="nonzero"/></svg>