<svg width="40" height="40" viewBox="0 0 40 40" fill="none" xmlns="http://www.w3.org/2000/svg">
<path d="M20 9.58333C15.9323 9.58333 12.6354 13.0469 12.6354 17.3177C12.6354 21.5885 15.9323 25.0521 20 25.0521C24.0677 25.0521 27.3646 21.5885 27.3646 17.3177C27.3646 13.0469 24.0677 9.58333 20 9.58333Z" fill="white"/>
<mask id="mask0_21_38" style="mask-type:luminance" maskUnits="userSpaceOnUse" x="1" y="0" width="38" height="39">
<path d="M1.58855 0H38.3646V38.7083H1.58855V0Z" fill="white"/>
</mask>
<g mask="url(#mask0_21_38)">
<path d="M32.2292 32.7031C30.599 28.724 27.1771 26.2344 19.9896 26.2344C12.8125 26.2344 9.38542 28.7187 7.75521 32.6875C4.42709 29.3177 2.35938 24.5885 2.35938 19.3542C2.35938 9.125 10.2552 0.828125 20 0.828125C29.7396 0.828125 37.6406 9.125 37.6406 19.3542C37.6406 24.599 35.5625 29.3333 32.2292 32.7031ZM20 0.015625C9.83334 0.015625 1.58855 8.67708 1.58855 19.3542C1.58855 24.9427 3.84375 29.974 7.44792 33.5052C10.7396 36.724 15.151 38.6927 20 38.6927C24.8385 38.6927 29.2448 36.7292 32.5313 33.5208C36.1458 29.9896 38.4115 24.9479 38.4115 19.3542C38.4115 8.67708 30.1667 0.015625 20 0.015625Z" fill="white"/>
</g>
<path d="M38 19.5C38 29.7419 29.9168 38 20 38C10.0832 38 2 29.7419 2 19.5C2 9.25809 10.0832 1 20 1C29.9168 1 38 9.25809 38 19.5Z" stroke="white" stroke-width="2"/>
</svg>
