<svg xmlns="http://www.w3.org/2000/svg" xmlns:xlink="http://www.w3.org/1999/xlink" width="40" zoomAndPan="magnify" viewBox="0 0 30 30.000001" height="40" preserveAspectRatio="xMidYMid meet" version="1.0"><defs><clipPath id="3db6e0745f"><path d="M 1.191406 0 L 28.773438 0 L 28.773438 29.03125 L 1.191406 29.03125 Z M 1.191406 0 " clip-rule="nonzero"/></clipPath></defs><path fill="#2b5957" d="M 15 7.1875 C 11.949219 7.1875 9.476562 9.785156 9.476562 12.988281 C 9.476562 16.191406 11.949219 18.789062 15 18.789062 C 18.050781 18.789062 20.523438 16.191406 20.523438 12.988281 C 20.523438 9.785156 18.050781 7.1875 15 7.1875 " fill-opacity="1" fill-rule="nonzero"/><g clip-path="url(#3db6e0745f)"><path fill="#2b5957" d="M 24.171875 24.527344 C 22.949219 21.542969 20.382812 19.675781 14.992188 19.675781 C 9.609375 19.675781 7.039062 21.539062 5.816406 24.515625 C 3.320312 21.988281 1.769531 18.441406 1.769531 14.515625 C 1.769531 6.84375 7.691406 0.621094 15 0.621094 C 22.304688 0.621094 28.230469 6.84375 28.230469 14.515625 C 28.230469 18.449219 26.671875 22 24.171875 24.527344 Z M 15 0.0117188 C 7.375 0.0117188 1.191406 6.507812 1.191406 14.515625 C 1.191406 18.707031 2.882812 22.480469 5.585938 25.128906 C 8.054688 27.542969 11.363281 29.019531 15 29.019531 C 18.628906 29.019531 21.933594 27.546875 24.398438 25.140625 C 27.109375 22.492188 28.808594 18.710938 28.808594 14.515625 C 28.808594 6.507812 22.625 0.0117188 15 0.0117188 " fill-opacity="1" fill-rule="nonzero"/></g></svg>