<svg width="24" height="24" viewBox="0 0 24 24" fill="none" xmlns="http://www.w3.org/2000/svg">
<path d="M16.1302 6.02583L12 10.1593L7.86975 6.02583L6.02583 7.86975L10.1593 12L6.02583 16.1335L7.86975 17.9742L12 13.8439L16.1302 17.9742L17.9742 16.1335L13.8407 12L17.9742 7.86975L16.1302 6.02583Z" fill="#2D3333"/>
<path d="M21.3132 15.9333C21.0581 16.5307 20.7449 17.1087 20.38 17.648C20.0183 18.1841 19.605 18.6878 19.1464 19.1464C18.6878 19.605 18.1841 20.0183 17.648 20.38C17.1087 20.7449 16.5307 21.0581 15.9333 21.3132C15.3229 21.5716 14.6868 21.7686 14.0377 21.901C13.3724 22.0366 12.6878 22.1076 12 22.1076C11.3122 22.1076 10.6276 22.0366 9.96233 21.901C9.31324 21.7686 8.67707 21.5716 8.06674 21.3132C7.46932 21.0581 6.89128 20.7449 6.35199 20.38C5.81593 20.0183 5.31216 19.605 4.85361 19.1464C4.39505 18.6878 3.9817 18.1841 3.62002 17.648C3.25511 17.1087 2.94187 16.5307 2.68676 15.9333C2.43165 15.3229 2.23143 14.6868 2.09903 14.0377C1.9634 13.3724 1.89559 12.6878 1.89559 12C1.89559 11.3122 1.9634 10.6276 2.09903 9.96233C2.23143 9.31324 2.43165 8.67707 2.68676 8.06674C2.94187 7.46932 3.25511 6.89128 3.62002 6.35199C3.9817 5.81593 4.39505 5.31216 4.85361 4.85361C5.31216 4.39828 5.81593 3.9817 6.35199 3.62002C6.89128 3.25511 7.46932 2.94187 8.06674 2.68676C8.67707 2.43165 9.31324 2.23143 9.96233 2.09903C10.6276 1.9634 11.3122 1.89559 12 1.89559C12.6878 1.89559 13.3724 1.9634 14.0377 2.09903C14.6868 2.23143 15.3229 2.43165 15.9333 2.68676C16.5307 2.94187 17.1087 3.25511 17.648 3.62002C18.1841 3.9817 18.6878 4.39828 19.1464 4.85361C19.605 5.31216 20.0183 5.81593 20.38 6.35199C20.7449 6.89128 21.0581 7.46932 21.3132 8.06674C21.5684 8.67707 21.7686 9.31324 21.901 9.96233C22.0366 10.6276 22.1044 11.3122 22.1044 12C22.1044 12.6878 22.0366 13.3724 21.901 14.0377C21.7686 14.6868 21.5684 15.3229 21.3132 15.9333ZM12 0C5.37352 0 0 5.37352 0 12C0 18.6265 5.37352 24 12 24C18.6265 24 24 18.6265 24 12C24 5.37352 18.6265 0 12 0Z" fill="#2D3333"/>
</svg>
