<svg xmlns="http://www.w3.org/2000/svg" xmlns:xlink="http://www.w3.org/1999/xlink" width="40" zoomAndPan="magnify" viewBox="0 0 30 30.000001" height="40" preserveAspectRatio="xMidYMid meet" version="1.0"><defs><clipPath id="9446916599"><path d="M 0.484375 0 L 29.515625 0 L 29.515625 29.03125 L 0.484375 29.03125 Z M 0.484375 0 " clip-rule="nonzero"/></clipPath></defs><path fill="#2b5957" d="M 19.996094 7.289062 L 15 12.289062 L 10.003906 7.289062 L 7.773438 9.519531 L 12.773438 14.515625 L 7.773438 19.515625 L 10.003906 21.742188 L 15 16.746094 L 19.996094 21.742188 L 22.226562 19.515625 L 17.226562 14.515625 L 22.226562 9.519531 L 19.996094 7.289062 " fill-opacity="1" fill-rule="nonzero"/><g clip-path="url(#9446916599)"><path fill="#2b5957" d="M 26.265625 19.273438 C 25.957031 19.996094 25.578125 20.695312 25.136719 21.347656 C 24.699219 21.996094 24.199219 22.605469 23.644531 23.160156 C 23.089844 23.714844 22.480469 24.214844 21.832031 24.652344 C 21.179688 25.09375 20.480469 25.472656 19.757812 25.78125 C 19.019531 26.09375 18.25 26.332031 17.464844 26.492188 C 16.660156 26.65625 15.832031 26.742188 15 26.742188 C 14.167969 26.742188 13.339844 26.65625 12.535156 26.492188 C 11.75 26.332031 10.980469 26.09375 10.242188 25.78125 C 9.519531 25.472656 8.820312 25.09375 8.167969 24.652344 C 7.519531 24.214844 6.910156 23.714844 6.355469 23.160156 C 5.800781 22.605469 5.300781 21.996094 4.863281 21.347656 C 4.421875 20.695312 4.042969 19.996094 3.734375 19.273438 C 3.425781 18.535156 3.183594 17.765625 3.023438 16.980469 C 2.859375 16.175781 2.777344 15.347656 2.777344 14.515625 C 2.777344 13.683594 2.859375 12.855469 3.023438 12.050781 C 3.183594 11.265625 3.425781 10.496094 3.734375 9.757812 C 4.042969 9.035156 4.421875 8.335938 4.863281 7.683594 C 5.300781 7.035156 5.800781 6.425781 6.355469 5.871094 C 6.910156 5.320312 7.519531 4.816406 8.167969 4.378906 C 8.820312 3.9375 9.519531 3.558594 10.242188 3.25 C 10.980469 2.941406 11.75 2.699219 12.535156 2.539062 C 13.339844 2.375 14.167969 2.292969 15 2.292969 C 15.832031 2.292969 16.660156 2.375 17.464844 2.539062 C 18.25 2.699219 19.019531 2.941406 19.757812 3.25 C 20.480469 3.558594 21.179688 3.9375 21.832031 4.378906 C 22.480469 4.816406 23.089844 5.320312 23.644531 5.871094 C 24.199219 6.425781 24.699219 7.035156 25.136719 7.683594 C 25.578125 8.335938 25.957031 9.035156 26.265625 9.757812 C 26.574219 10.496094 26.816406 11.265625 26.976562 12.050781 C 27.140625 12.855469 27.222656 13.683594 27.222656 14.515625 C 27.222656 15.347656 27.140625 16.175781 26.976562 16.980469 C 26.816406 17.765625 26.574219 18.535156 26.265625 19.273438 Z M 15 0 C 6.984375 0 0.484375 6.5 0.484375 14.515625 C 0.484375 22.53125 6.984375 29.03125 15 29.03125 C 23.015625 29.03125 29.515625 22.53125 29.515625 14.515625 C 29.515625 6.5 23.015625 0 15 0 " fill-opacity="1" fill-rule="nonzero"/></g></svg>