<svg xmlns="http://www.w3.org/2000/svg" xmlns:xlink="http://www.w3.org/1999/xlink" width="40" zoomAndPan="magnify" viewBox="0 0 30 30.000001" height="40" preserveAspectRatio="xMidYMid meet" version="1.0"><path fill="#ffffff" d="M 12.214844 18.5625 L 12.214844 10.472656 L 19.328125 14.515625 Z M 28.035156 7.925781 C 27.714844 6.746094 26.808594 5.832031 25.652344 5.507812 L 25.628906 5.503906 C 22.734375 5.136719 19.382812 4.925781 15.980469 4.925781 C 15.636719 4.925781 15.292969 4.925781 14.949219 4.929688 L 15 4.929688 C 14.707031 4.925781 14.363281 4.921875 14.019531 4.921875 C 10.617188 4.921875 7.265625 5.132812 3.976562 5.542969 L 4.367188 5.5 C 3.191406 5.832031 2.285156 6.742188 1.96875 7.898438 L 1.964844 7.921875 C 1.601562 9.835938 1.394531 12.039062 1.394531 14.289062 C 1.394531 14.367188 1.394531 14.449219 1.394531 14.527344 L 1.394531 14.515625 C 1.394531 14.582031 1.394531 14.660156 1.394531 14.742188 C 1.394531 16.992188 1.601562 19.191406 2 21.328125 L 1.964844 21.105469 C 2.285156 22.285156 3.191406 23.199219 4.347656 23.523438 L 4.371094 23.527344 C 7.265625 23.894531 10.617188 24.105469 14.019531 24.105469 C 14.363281 24.105469 14.707031 24.105469 15.050781 24.097656 L 15 24.101562 C 15.292969 24.105469 15.636719 24.105469 15.980469 24.105469 C 19.382812 24.105469 22.734375 23.894531 26.023438 23.488281 L 25.632812 23.527344 C 26.808594 23.199219 27.714844 22.289062 28.03125 21.132812 L 28.039062 21.105469 C 28.398438 19.195312 28.605469 16.992188 28.605469 14.742188 C 28.605469 14.664062 28.605469 14.582031 28.605469 14.503906 L 28.605469 14.515625 C 28.605469 14.449219 28.605469 14.371094 28.605469 14.289062 C 28.605469 12.039062 28.398438 9.839844 28 7.703125 Z M 28.035156 7.925781 " fill-opacity="1" fill-rule="nonzero"/></svg>